# xmcd
#
# Track frame offsets:
#	150
#	38077
#	102853
#	184412
#
# Disc length: 2982 seconds
# Revision: 1
# Processed by: cddbd v1.5.2PL0 Copyright (c) Steve Scherf et al.
# Submitted via: dBpowerAMP V12.0
#
DISCID=2d0ba404
DTITLE=Rascal Flatts - Unstoppable: Radio Station Take-Over Track Sheet
DYEAR=2009
DGENRE=Country
TTITLE0=Unstoppable-Summer Nights
TTITLE1=Here Comes Goodbye-Love Who You Love-Why
TTITLE2=She'd Be California-Holdin' On-Once-Things That Matter
TTITLE3=Close-Forever
EXTD=
EXTT0=
EXTT1=
EXTT2=
EXTT3=
PLAYORDER=
